<?xml version="1.0" standalone="no"?>
<!DOCTYPE svg PUBLIC "-//W3C//DTD SVG 20010904//EN"
 "http://www.w3.org/TR/2001/REC-SVG-20010904/DTD/svg10.dtd">
<svg version="1.0" xmlns="http://www.w3.org/2000/svg"
 width="26.000000pt" height="26.000000pt" viewBox="0 0 26.000000 26.000000"
 preserveAspectRatio="xMidYMid meet">

<g transform="translate(0.000000,26.000000) scale(0.100000,-0.100000)"
fill="#f2e1cf" stroke="none">
<path d="M65 251 c-58 -24 -81 -103 -46 -158 27 -43 86 -62 129 -41 29 15 31
14 65 -19 19 -19 37 -31 40 -26 4 6 -9 24 -27 42 -33 32 -33 33 -19 63 41 82
-54 175 -142 139z m84 -26 c73 -37 46 -155 -36 -155 -46 0 -68 13 -83 50 -16
38 1 84 39 105 33 18 46 18 80 0z"/>
</g>
</svg>
